<svg width="152" height="152" viewBox="0 0 152 152" fill="none" xmlns="http://www.w3.org/2000/svg">
<g filter="url(#filter0_ddi_141_3796)">
<rect x="11" y="10" width="130" height="130" fill="#145E94" fill-opacity="0.8"/>
<rect x="12" y="11" width="128" height="128" stroke="#BAEFFB" stroke-width="2"/>
</g>
<g filter="url(#filter1_ddf_141_3796)">
<path fill-rule="evenodd" clip-rule="evenodd" d="M22.1719 10L11 21.1719V10H22.1719ZM15.5703 14.5703V11.0156L12.0156 14.5703H15.5703Z" fill="#BAEFFB"/>
<path fill-rule="evenodd" clip-rule="evenodd" d="M22.1719 140L11 128.828V140H22.1719ZM15.5703 135.43V138.984L12.0156 135.43H15.5703Z" fill="#BAEFFB"/>
<path fill-rule="evenodd" clip-rule="evenodd" d="M141 21.1719L129.828 10L141 10L141 21.1719ZM136.43 14.5703L139.984 14.5703L136.43 11.0156L136.43 14.5703Z" fill="#BAEFFB"/>
<path fill-rule="evenodd" clip-rule="evenodd" d="M141 128.828L129.828 140L141 140L141 128.828ZM136.43 135.43L139.984 135.43L136.43 138.984L136.43 135.43Z" fill="#BAEFFB"/>
<path d="M11.5 125.574V24.4259L25.4259 10.5H126.574L140.5 24.4258V125.574L126.574 139.5H25.4258L11.5 125.574Z" stroke="#BAEFFB"/>
<path d="M15.5625 129.637V20.3634L21.3634 14.5625H130.637L136.438 20.3634V129.637L130.637 135.438H21.3634L15.5625 129.637Z" stroke="#BAEFFB"/>
</g>
<defs>
<filter id="filter0_ddi_141_3796" x="0" y="0" width="152" height="152" filterUnits="userSpaceOnUse" color-interpolation-filters="sRGB">
<feFlood flood-opacity="0" result="BackgroundImageFix"/>
<feColorMatrix in="SourceAlpha" type="matrix" values="0 0 0 0 0 0 0 0 0 0 0 0 0 0 0 0 0 0 127 0" result="hardAlpha"/>
<feOffset/>
<feGaussianBlur stdDeviation="5"/>
<feColorMatrix type="matrix" values="0 0 0 0 0.308377 0 0 0 0 0.751016 0 0 0 0 1 0 0 0 1 0"/>
<feBlend mode="normal" in2="BackgroundImageFix" result="effect1_dropShadow_141_3796"/>
<feColorMatrix in="SourceAlpha" type="matrix" values="0 0 0 0 0 0 0 0 0 0 0 0 0 0 0 0 0 0 127 0" result="hardAlpha"/>
<feOffset dy="1"/>
<feGaussianBlur stdDeviation="5.5"/>
<feColorMatrix type="matrix" values="0 0 0 0 0.0385764 0 0 0 0 0.552554 0 0 0 0 0.841667 0 0 0 1 0"/>
<feBlend mode="hard-light" in2="effect1_dropShadow_141_3796" result="effect2_dropShadow_141_3796"/>
<feBlend mode="normal" in="SourceGraphic" in2="effect2_dropShadow_141_3796" result="shape"/>
<feColorMatrix in="SourceAlpha" type="matrix" values="0 0 0 0 0 0 0 0 0 0 0 0 0 0 0 0 0 0 127 0" result="hardAlpha"/>
<feMorphology radius="6" operator="erode" in="SourceAlpha" result="effect3_innerShadow_141_3796"/>
<feOffset/>
<feGaussianBlur stdDeviation="10"/>
<feComposite in2="hardAlpha" operator="arithmetic" k2="-1" k3="1"/>
<feColorMatrix type="matrix" values="0 0 0 0 0.762544 0 0 0 0 0.928335 0 0 0 0 1 0 0 0 0.3 0"/>
<feBlend mode="hard-light" in2="shape" result="effect3_innerShadow_141_3796"/>
</filter>
<filter id="filter1_ddf_141_3796" x="0" y="0" width="152" height="152" filterUnits="userSpaceOnUse" color-interpolation-filters="sRGB">
<feFlood flood-opacity="0" result="BackgroundImageFix"/>
<feColorMatrix in="SourceAlpha" type="matrix" values="0 0 0 0 0 0 0 0 0 0 0 0 0 0 0 0 0 0 127 0" result="hardAlpha"/>
<feOffset/>
<feGaussianBlur stdDeviation="5"/>
<feColorMatrix type="matrix" values="0 0 0 0 0.308377 0 0 0 0 0.751016 0 0 0 0 1 0 0 0 1 0"/>
<feBlend mode="normal" in2="BackgroundImageFix" result="effect1_dropShadow_141_3796"/>
<feColorMatrix in="SourceAlpha" type="matrix" values="0 0 0 0 0 0 0 0 0 0 0 0 0 0 0 0 0 0 127 0" result="hardAlpha"/>
<feOffset dy="1"/>
<feGaussianBlur stdDeviation="5.5"/>
<feColorMatrix type="matrix" values="0 0 0 0 0.0385764 0 0 0 0 0.552554 0 0 0 0 0.841667 0 0 0 1 0"/>
<feBlend mode="hard-light" in2="effect1_dropShadow_141_3796" result="effect2_dropShadow_141_3796"/>
<feBlend mode="normal" in="SourceGraphic" in2="effect2_dropShadow_141_3796" result="shape"/>
<feGaussianBlur stdDeviation="0.5" result="effect3_foregroundBlur_141_3796"/>
</filter>
</defs>
</svg>
